<?xml version="1.0" encoding="iso-8859-1"?>
<!-- Generator: Adobe Illustrator 19.0.0, SVG Export Plug-In . SVG Version: 6.00 Build 0)  -->
<svg version="1.1" id="Layer_1" xmlns="http://www.w3.org/2000/svg" xmlns:xlink="http://www.w3.org/1999/xlink" x="0px" y="0px"
	 viewBox="0 0 319.33 319.33" style="enable-background:new 0 0 319.33 319.33;fill:#FFFFFF" xml:space="preserve">
<g>
	<g>
		<g>
			<path d="M299.592,82.105c-1.464-33.524-31.912-60.452-68.944-60.452c-25.172,0-47.816,12.18-60.056,32.044
				c-2.34-1.16-4.792-2.096-7.34-2.804c-9.016-2.484-18.292-2.28-26.276,0.464c-11.96-8.04-26.236-12.54-41.38-12.54
				c-40.064,0-72.968,32.06-74.276,71.872C3.655,123.513-4.189,146.617,2.207,167.621c4.16,13.676,13.528,24.748,26.3,31.132
				c0.52,0.28,12.896,6.724,27.116,5.36c16.276,0.3,73.184,1.288,116.08,1.288c25.94,0,46.76-0.36,50.36-1.456
				c13.224-4.024,24.088-12.952,30.588-25.152c6.504-12.192,7.868-26.188,3.84-39.408c-5.096-16.74-17.944-29.452-34.636-34.44
				c-0.24-1.144-0.508-2.204-0.824-3.232c-6.76-22.216-30.34-34.82-52.548-28.02c-2.772,0.84-5.44,1.964-7.98,3.36
				c-4.184-7.548-9.528-14.156-15.74-19.672c5.204-0.836,10.84-0.536,16.424,1.004c3.136,0.868,6.092,2.168,8.8,3.868
				c0.916,0.572,2.028,0.756,3.064,0.46c1.044-0.276,1.92-0.972,2.432-1.928c10.16-19.048,31.816-31.356,55.172-31.356
				c33.564,0,61.032,24.616,61.224,54.868c0.008,1.352,0.72,2.604,1.88,3.3c14.772,8.924,21.248,25.204,16.112,40.512
				c-3.212,9.568-10.488,17.336-20.552,21.9c-0.096,0.048-10.008,4.74-21.444,3.752c-2.104-0.224-4.02,1.404-4.2,3.548
				c-0.184,2.136,1.404,4.02,3.548,4.2c1.296,0.112,2.576,0.16,3.824,0.16c11.812,0,21.192-4.436,21.556-4.612
				c11.984-5.44,20.732-14.836,24.644-26.472C323.236,112.685,315.991,93.061,299.592,82.105z M155.475,84.257
				c0.496,1.024,1.416,1.78,2.512,2.068c1.1,0.288,2.272,0.08,3.204-0.568c2.94-2.036,6.148-3.588,9.552-4.624
				c18.112-5.508,37.336,4.736,42.848,22.848c0.416,1.38,0.744,2.868,1.028,4.676c0.244,1.544,1.388,2.792,2.904,3.168
				c15.2,3.772,26.98,14.924,31.524,29.828c3.416,11.24,2.264,23.132-3.268,33.496c-5.524,10.36-14.752,17.948-25.98,21.364
				c-7.1,1.948-104.384,0.944-164.476-0.152c-12.308,1.192-23.088-4.42-23.268-4.508c-10.924-5.464-18.888-14.868-22.424-26.484
				c-5.604-18.412,1.668-38.72,17.68-49.38c1.076-0.72,1.728-1.924,1.732-3.212c0.208-36.492,30.06-66.172,66.544-66.172
				C121.291,46.601,144.243,61.029,155.475,84.257z"/>
			<path d="M272.811,78.133c4.12-13.208-3.74-27.636-16.94-31.564c-3.392-1.008-4.84,4.284-1.456,5.292
				c10.416,3.1,16.324,14.5,13.108,24.816C266.472,80.049,271.764,81.493,272.811,78.133z"/>
			<path d="M192.908,183.681h18.856c3.528,0,3.536-5.484,0-5.484h-18.856C189.379,178.193,189.371,183.681,192.908,183.681z"/>
			<path d="M136.343,183.681H181.6c3.528,0,3.536-5.484,0-5.484h-45.256C132.811,178.193,132.803,183.681,136.343,183.681z"/>
			<path d="M93.6,252.045c-1.5,0-2.72,1.216-2.72,2.72v11.42c0,1.508,1.22,2.72,2.72,2.72s2.72-1.216,2.72-2.72v-11.42
				C96.319,253.257,95.1,252.045,93.6,252.045z"/>
			<path d="M115.931,240.945h-14.768l10.448-10.448c1.06-1.06,1.06-2.784-0.004-3.844c-1.06-1.06-2.784-1.06-3.852,0l-10.436,10.44
				v-14.764c0-1.508-1.22-2.72-2.72-2.72c-1.504,0-2.72,1.216-2.72,2.72v18.612H73.267c-1.504,0-2.72,1.216-2.72,2.72
				c0,1.504,1.216,2.72,2.72,2.72h14.768l-10.44,10.44c-1.06,1.06-1.06,2.784,0,3.848c0.532,0.528,1.228,0.796,1.924,0.796
				c0.696,0,1.392-0.268,1.92-0.796l10.456-10.456c0.62-0.616,0.836-1.456,0.732-2.26c0.068,0.076,0.104,0.172,0.184,0.24
				l13.068,11.432c0.516,0.456,1.152,0.676,1.792,0.676c0.756,0,1.512-0.316,2.048-0.932c0.988-1.128,0.872-2.848-0.256-3.836
				l-10.46-9.148h16.936c1.5,0,2.72-1.216,2.72-2.72C118.652,242.157,117.431,240.945,115.931,240.945z"/>
			<path d="M192.908,257.401h-11.42c-1.504,0-2.72,1.216-2.72,2.72c0,1.504,1.216,2.72,2.72,2.72h11.42c1.5,0,2.72-1.216,2.72-2.72
				C195.627,258.617,194.408,257.401,192.908,257.401z"/>
			<path d="M171.144,262.413h0.004c0.428,0,0.844-0.136,1.236-0.34c1.1-0.348,1.912-1.34,1.912-2.56v-20.728
				c0-1.508-1.216-2.72-2.72-2.72c-1.5,0-2.72,1.216-2.72,2.72v14.768l-10.44-10.44c-1.06-1.06-2.784-1.06-3.844,0
				c-1.064,1.06-1.064,2.784,0,3.848l10.44,10.44h-14.768c-1.5,0-2.72,1.216-2.72,2.72c0,1.508,1.22,2.72,2.72,2.72h19.524
				C170.28,262.841,170.736,262.661,171.144,262.413z"/>
			<path d="M171.576,266.217c-1.5,0-2.72,1.216-2.72,2.72v12.52c0,1.504,1.22,2.72,2.72,2.72s2.72-1.216,2.72-2.72v-12.52
				C174.296,267.433,173.076,266.217,171.576,266.217z"/>
			<path d="M178.127,262.825c-1.06-1.06-2.784-1.06-3.844,0c-1.064,1.06-1.064,2.784,0,3.844l10.452,10.456
				c0.532,0.532,1.228,0.796,1.928,0.796s1.392-0.268,1.924-0.796c1.06-1.06,1.06-2.784,0.004-3.844L178.127,262.825z"/>
			<path d="M247.999,224.289c0.696,0,1.392-0.268,1.928-0.796l8.072-8.08c1.06-1.068,1.056-2.784-0.008-3.852
				c-1.06-1.06-2.78-1.056-3.852,0.008l-8.072,8.076c-1.06,1.068-1.056,2.784,0.004,3.852
				C246.608,224.029,247.303,224.289,247.999,224.289z"/>
			<path d="M249.147,232.889c-1.06-1.06-2.784-1.06-3.844,0c-1.068,1.06-1.068,2.784,0,3.844l8.848,8.856
				c0.532,0.528,1.228,0.796,1.924,0.796c0.696,0,1.392-0.268,1.92-0.796c1.068-1.06,1.068-2.784,0-3.848L249.147,232.889z"/>
			<path d="M262.324,225.853h-14.792c-1.504,0-2.72,1.216-2.72,2.72c0,1.504,1.216,2.72,2.72,2.72h14.792
				c1.504,0,2.72-1.216,2.72-2.72C265.043,227.069,263.827,225.853,262.324,225.853z"/>
			<path d="M216.931,228.577c0,1.504,1.216,2.72,2.72,2.72h14.768l-10.444,10.444c-1.06,1.06-1.06,2.784,0,3.848
				c0.532,0.532,1.228,0.796,1.924,0.796c0.696,0,1.392-0.268,1.924-0.796l13.808-13.812c0.364-0.364,0.556-0.812,0.672-1.276
				c0.3-0.3,0.5-0.688,0.632-1.108c0.536-1.024,0.408-2.308-0.452-3.168l-14.66-14.664c-1.06-1.06-2.784-1.06-3.848,0
				c-1.06,1.06-1.06,2.784,0,3.848l10.44,10.44h-14.76C218.152,225.853,216.931,227.073,216.931,228.577z"/>
			<path d="M239.132,236.329c0.336,5.036,0.672,10.072,1.012,15.108c0.236,3.504,5.724,3.528,5.484,0
				c-0.336-5.036-0.676-10.072-1.012-15.108C244.384,232.825,238.895,232.797,239.132,236.329z"/>
			<path d="M132.535,266.197c-5.336,0-9.672,4.336-9.672,9.672s4.34,9.672,9.672,9.672c5.336,0,9.672-4.34,9.672-9.672
				C142.212,270.533,137.871,266.197,132.535,266.197z M132.535,280.061c-2.308,0-4.188-1.88-4.188-4.188
				c0-2.308,1.88-4.188,4.188-4.188s4.188,1.88,4.188,4.188C136.728,278.181,134.848,280.061,132.535,280.061z"/>
			<path d="M269.947,175.989c-5.232,0-9.488,4.252-9.488,9.48c0,5.232,4.252,9.484,9.488,9.484c5.228,0,9.48-4.252,9.48-9.484
				C279.428,180.241,275.176,175.989,269.947,175.989z M269.947,189.469c-2.208,0-4-1.796-4-4c0-2.204,1.792-3.996,4-3.996
				c2.2,0,3.996,1.792,3.996,3.996C273.944,187.677,272.147,189.469,269.947,189.469z"/>
			<path d="M225.903,278.717c-5.232,0-9.484,4.252-9.484,9.48c0,5.228,4.252,9.48,9.484,9.48c5.228,0,9.48-4.252,9.48-9.48
				C235.384,282.969,231.132,278.717,225.903,278.717z M225.903,292.193c-2.204,0-4-1.796-4-3.996c0-2.204,1.792-3.996,4-3.996
				s3.996,1.792,3.996,3.996C229.9,290.397,228.108,292.193,225.903,292.193z"/>
			<path d="M221.944,260.097v-0.456c0-7.504-11.66-7.516-11.66,0v0.456C210.283,267.601,221.944,267.613,221.944,260.097z"/>
			<path d="M60.687,213.005c-0.152,0.152-0.304,0.308-0.456,0.456c-5.316,5.316,2.928,13.56,8.248,8.248
				c0.152-0.152,0.304-0.304,0.456-0.456C74.243,215.937,65.999,207.689,60.687,213.005z"/>
		</g>
	</g>
</g>
<g>
</g>
<g>
</g>
<g>
</g>
<g>
</g>
<g>
</g>
<g>
</g>
<g>
</g>
<g>
</g>
<g>
</g>
<g>
</g>
<g>
</g>
<g>
</g>
<g>
</g>
<g>
</g>
<g>
</g>
</svg>
