<?xml version="1.0" encoding="iso-8859-1"?>
<!-- Generator: Adobe Illustrator 19.0.0, SVG Export Plug-In . SVG Version: 6.00 Build 0)  -->
<svg version="1.1" id="Layer_1" xmlns="http://www.w3.org/2000/svg" xmlns:xlink="http://www.w3.org/1999/xlink" x="0px" y="0px"
	 viewBox="0 0 314.879 314.879" style="enable-background:new 0 0 314.879 314.879;fill:#FFFFFF;" xml:space="preserve">
<g>
	<g>
		<g>
			<path d="M181.938,30.591c0.168,0.028,0.336,0.04,0.5,0.04c1.616,0,3.04-1.184,3.288-2.832l2.576-16.984
				c0.276-1.82-0.976-3.516-2.792-3.788c-1.796-0.296-3.512,0.972-3.788,2.788l-2.576,16.988
				C178.87,28.623,180.118,30.315,181.938,30.591z"/>
			<path d="M177.202,61.855c0.168,0.028,0.336,0.04,0.5,0.04c1.616,0,3.04-1.184,3.288-2.832l3.004-19.804
				c0.276-1.816-0.976-3.516-2.792-3.788c-1.812-0.284-3.516,0.972-3.792,2.792l-3,19.804
				C174.13,59.891,175.382,61.583,177.202,61.855z"/>
			<path d="M82.654,51.947c0.652,0.892,1.66,1.36,2.68,1.36c0.688,0,1.38-0.212,1.972-0.652c1.48-1.088,1.796-3.176,0.708-4.652
				L78.65,35.295c-1.092-1.484-3.176-1.808-4.652-0.708c-1.48,1.088-1.796,3.176-0.708,4.652L82.654,51.947z"/>
			<path d="M102.238,78.527c0.652,0.892,1.66,1.36,2.68,1.36c0.688,0,1.38-0.212,1.972-0.652c1.48-1.092,1.796-3.176,0.708-4.652
				L96.57,59.615c-1.088-1.484-3.176-1.808-4.652-0.708c-1.48,1.092-1.796,3.176-0.708,4.652L102.238,78.527z"/>
			<path d="M266.202,82.719c0.688,0,1.38-0.212,1.972-0.652l14.968-11.024c1.48-1.088,1.796-3.176,0.708-4.652
				c-1.1-1.48-3.18-1.808-4.656-0.708l-14.968,11.028c-1.48,1.088-1.796,3.176-0.708,4.652
				C264.17,82.247,265.182,82.719,266.202,82.719z"/>
			<path d="M241.886,100.639c0.688,0,1.376-0.212,1.972-0.652l12.708-9.36c1.48-1.088,1.796-3.176,0.708-4.652
				c-1.092-1.492-3.176-1.804-4.656-0.708l-12.708,9.36c-1.48,1.088-1.796,3.176-0.708,4.652
				C239.854,100.167,240.862,100.639,241.886,100.639z"/>
			<path d="M224.198,132.323c-2.476-4.696-5.108-9.296-8.076-13.7c-1.684-2.492-5.756-0.144-4.056,2.372
				c2.968,4.404,5.604,9.004,8.076,13.7C221.554,137.371,225.61,134.999,224.198,132.323z"/>
			<path d="M205.722,113.295c2.152,2.128,5.476-1.192,3.32-3.32c-5.368-5.308-11.732-9.304-19.116-11.076
				c-2.94-0.708-4.192,3.824-1.248,4.528C195.314,105.019,200.894,108.523,205.722,113.295z"/>
			<path d="M241.846,157.259c0-46.852-38.116-84.968-84.964-84.968c-46.852,0-84.968,38.116-84.968,84.968
				c0,19.412,6.372,37.684,18.428,52.848c1.14,1.436,3.232,1.672,4.68,0.532c1.44-1.144,1.68-3.24,0.536-4.68
				c-11.112-13.968-16.984-30.812-16.984-48.7c0-43.176,35.132-78.304,78.308-78.304c43.176,0,78.308,35.128,78.308,78.304
				s-35.128,78.304-78.308,78.304c-10.604,0-20.884-2.076-30.56-6.184c-1.692-0.708-3.648,0.072-4.368,1.764
				c-0.72,1.692,0.072,3.648,1.764,4.364c10.504,4.456,21.664,6.716,33.164,6.716C203.73,242.227,241.846,204.111,241.846,157.259z"
				/>
			<path d="M138.742,284.295c-1.804-0.296-3.516,0.972-3.792,2.792l-2.576,16.98c-0.276,1.82,0.976,3.516,2.792,3.788
				c0.168,0.028,0.336,0.04,0.5,0.04c1.62,0,3.04-1.184,3.288-2.828l2.576-16.984C141.814,286.267,140.562,284.567,138.742,284.295z
				"/>
			<path d="M143.482,253.027c-1.796-0.3-3.516,0.972-3.792,2.792l-3.004,19.804c-0.276,1.82,0.976,3.516,2.796,3.788
				c0.168,0.028,0.332,0.04,0.5,0.04c1.616,0,3.04-1.184,3.288-2.832l3.004-19.804C146.55,254.999,145.298,253.303,143.482,253.027z
				"/>
			<path d="M238.026,262.931c-1.092-1.484-3.176-1.8-4.652-0.7c-1.48,1.092-1.796,3.176-0.708,4.656l9.364,12.704
				c0.652,0.888,1.66,1.356,2.68,1.356c0.688,0,1.38-0.208,1.972-0.652c1.48-1.088,1.796-3.176,0.708-4.652L238.026,262.931z"/>
			<path d="M218.446,236.355c-1.088-1.484-3.176-1.804-4.652-0.708c-1.484,1.088-1.8,3.172-0.712,4.652l11.028,14.972
				c0.656,0.888,1.66,1.36,2.684,1.36c0.688,0,1.38-0.208,1.972-0.652c1.48-1.088,1.796-3.172,0.708-4.652L218.446,236.355z"/>
			<path d="M52.506,232.811l-14.968,11.032c-1.484,1.092-1.796,3.172-0.704,4.656c0.652,0.888,1.66,1.352,2.68,1.352
				c0.688,0,1.38-0.212,1.972-0.652l14.968-11.028c1.48-1.088,1.796-3.176,0.708-4.652
				C56.066,232.035,53.982,231.715,52.506,232.811z"/>
			<path d="M76.822,214.895l-12.708,9.36c-1.48,1.088-1.796,3.176-0.704,4.652c0.652,0.892,1.66,1.36,2.68,1.36
				c0.688,0,1.38-0.212,1.972-0.652l12.708-9.36c1.48-1.088,1.796-3.176,0.708-4.652C80.382,214.115,78.306,213.791,76.822,214.895z
				"/>
			<path d="M51.582,147.603c1.616,0,3.036-1.184,3.288-2.832c0.276-1.82-0.976-3.516-2.792-3.788l-16.984-2.576
				c-1.772-0.284-3.512,0.976-3.788,2.792c-0.276,1.82,0.976,3.516,2.792,3.788l16.984,2.576
				C51.246,147.591,51.414,147.603,51.582,147.603z"/>
			<path d="M23.63,136.671l-19.804-3c-1.776-0.284-3.516,0.972-3.788,2.788c-0.276,1.82,0.976,3.516,2.792,3.792l19.804,3
				c0.168,0.028,0.336,0.04,0.5,0.04c1.62,0,3.04-1.184,3.288-2.832C26.702,138.639,25.45,136.947,23.63,136.671z"/>
			<path d="M312.046,176.695l-16.984-2.576c-1.784-0.3-3.516,0.972-3.792,2.792s0.976,3.516,2.796,3.788l16.98,2.576
				c0.172,0.028,0.34,0.04,0.508,0.04c1.616,0,3.036-1.184,3.288-2.832C315.114,178.667,313.866,176.971,312.046,176.695z"/>
			<path d="M283.598,172.387l-19.804-3c-1.788-0.28-3.512,0.972-3.788,2.788c-0.276,1.82,0.976,3.516,2.792,3.792l19.804,3
				c0.168,0.028,0.336,0.04,0.5,0.04c1.62,0,3.04-1.184,3.288-2.832C286.67,174.355,285.418,172.663,283.598,172.387z"/>
			<path d="M65.994,105.419c1.088-1.48,0.772-3.564-0.708-4.652l-13.82-10.192c-1.48-1.092-3.56-0.78-4.66,0.7
				c-1.092,1.484-0.776,3.564,0.704,4.66l13.824,10.192c0.596,0.44,1.284,0.652,1.972,0.652
				C64.33,106.779,65.338,106.307,65.994,105.419z"/>
			<path d="M259.598,218.583l-14.296-9.52c-1.528-1.012-3.596-0.6-4.616,0.928c-1.02,1.528-0.608,3.596,0.924,4.616l14.3,9.52
				c0.568,0.376,1.208,0.56,1.844,0.56c1.076,0,2.132-0.524,2.772-1.488C261.542,221.667,261.13,219.603,259.598,218.583z"/>
			<path d="M55.534,180.231l-16.988,2.568c-1.82,0.276-3.072,1.968-2.796,3.788c0.252,1.648,1.672,2.832,3.288,2.832
				c0.168,0,0.336-0.016,0.504-0.04l16.984-2.56c1.82-0.276,3.072-1.976,2.796-3.792C59.046,181.211,57.342,179.979,55.534,180.231z
				"/>
			<path d="M256.786,133.443c0.316,1.588,1.704,2.676,3.26,2.676c0.22,0,0.44-0.02,0.66-0.068l16.844-3.384
				c1.804-0.364,2.972-2.116,2.608-3.92c-0.364-1.804-2.128-2.968-3.92-2.604l-16.844,3.38
				C257.59,129.887,256.422,131.639,256.786,133.443z"/>
			<path d="M104.518,246.951c-1.472-1.096-3.56-0.784-4.652,0.7l-10.2,13.82c-1.092,1.484-0.776,3.564,0.704,4.66
				c0.596,0.44,1.284,0.652,1.976,0.652c1.02,0,2.028-0.468,2.68-1.356l10.2-13.82C106.318,250.127,106.002,248.043,104.518,246.951
				z"/>
			<path d="M209.086,72.255c0.568,0.376,1.208,0.56,1.844,0.56c1.076,0,2.132-0.524,2.772-1.484l9.52-14.3
				c1.016-1.528,0.604-3.596-0.924-4.616c-1.528-1.012-3.596-0.608-4.616,0.928l-9.52,14.296
				C207.146,69.171,207.558,71.235,209.086,72.255z"/>
			<path d="M194.09,258.411c-0.276-1.824-1.988-3.044-3.792-2.8c-1.82,0.276-3.072,1.972-2.796,3.788l2.56,16.988
				c0.248,1.652,1.668,2.836,3.288,2.836c0.164,0,0.332-0.016,0.5-0.036c1.82-0.276,3.072-1.972,2.8-3.788L194.09,258.411z"/>
			<path d="M136.786,55.539c0.316,1.58,1.708,2.676,3.26,2.676c0.22,0,0.44-0.02,0.656-0.064c1.804-0.364,2.972-2.12,2.612-3.924
				l-3.376-16.84c-0.36-1.804-2.108-2.972-3.92-2.608c-1.804,0.356-2.972,2.116-2.608,3.92L136.786,55.539z"/>
		</g>
	</g>
</g>
<g>
</g>
<g>
</g>
<g>
</g>
<g>
</g>
<g>
</g>
<g>
</g>
<g>
</g>
<g>
</g>
<g>
</g>
<g>
</g>
<g>
</g>
<g>
</g>
<g>
</g>
<g>
</g>
<g>
</g>
</svg>
