<?xml version="1.0" encoding="iso-8859-1"?>
<!-- Generator: Adobe Illustrator 19.0.0, SVG Export Plug-In . SVG Version: 6.00 Build 0)  -->
<svg version="1.1" id="Layer_1" xmlns="http://www.w3.org/2000/svg" xmlns:xlink="http://www.w3.org/1999/xlink" x="0px" y="0px"
	 viewBox="0 0 318.427 318.427" style="enable-background:new 0 0 318.427 318.427;fill:#FFFFFF" xml:space="preserve">
<g>
	<g>
		<g>
			<path d="M300.152,68.878c-1.348-31.048-29.548-55.984-63.852-55.984c-23.312,0-44.284,11.288-55.62,29.68
				c-2.168-1.076-4.44-1.944-6.796-2.592c-8.344-2.312-16.932-2.116-24.336,0.42c-11.076-7.448-24.3-11.612-38.324-11.612
				c-37.104,0-67.576,29.692-68.788,66.56c-16.356,11.884-23.624,33.28-17.7,52.728c3.632,11.932,11.584,21.68,22.436,27.748
				l-9.728,12.92c-1.196,1.588-0.876,3.844,0.716,5.04c1.6,1.196,3.856,0.868,5.04-0.716l26.728-35.496
				c2.88-3.8,5.752-7.596,8.544-11.456c0.568-0.784,1.016-1.024,2.104-1.116c5.04-0.436,10.088-0.892,15.128-1.348
				c8.044-0.724,16.092-1.452,24.02-2.104c-11.548,12.544-23.16,25.028-34.776,37.512l-7.704,8.284l-1.964,2.024
				c-1.052,1.092-1.312,2.72-0.644,4.08l0.324,0.644c0.668,1.304,2.004,2.072,3.52,1.944l38.196-3.432
				c-0.452,0.36-0.908,0.716-1.364,1.068l-63.82,50.696c-1.556,1.232-1.816,3.5-0.58,5.052c0.712,0.9,1.764,1.364,2.82,1.364
				c0.788,0,1.576-0.256,2.236-0.784l62.476-49.64l1.264-0.992c1.14-0.876,2.272-1.756,3.328-2.72
				c1.908-1.752,2.712-4.144,2.152-6.4c-0.56-2.26-2.396-4-4.896-4.652c-1.524-0.4-2.968-0.272-4.168-0.168l-29.748,2.668
				l3.84-4.128c11.772-12.656,23.544-25.312,35.252-38.036c1.272-1.392,1.664-3.072,1.972-4.42c0.088-0.376,0.164-0.756,0.284-1.1
				c0.304-0.908,0.24-1.9-0.192-2.76c-0.428-0.856-1.176-1.508-2.084-1.812c-0.348-0.112-0.696-0.272-1.04-0.428
				c-1.248-0.552-2.836-1.248-4.64-1.088c-8.244,0.664-16.48,1.408-24.72,2.152c-5.032,0.452-10.068,0.908-15.1,1.344
				c-3.136,0.268-5.532,1.604-7.316,4.072c-2.764,3.816-5.6,7.572-8.448,11.32l-12.652,16.804
				c-9.664-5.12-16.736-13.604-19.916-24.048c-5.188-17.048,1.544-35.852,16.372-45.732c0.996-0.664,1.6-1.78,1.608-2.976
				c0.192-33.796,27.84-61.284,61.624-61.284c23.808,0,45.056,13.364,55.464,34.876c0.46,0.948,1.304,1.648,2.324,1.912
				c1.012,0.268,2.1,0.08,2.968-0.52c2.724-1.888,5.7-3.324,8.844-4.288c16.776-5.08,34.572,4.384,39.684,21.16
				c0.388,1.276,0.688,2.656,0.952,4.332c0.228,1.428,1.284,2.584,2.688,2.932c14.08,3.496,24.992,13.82,29.196,27.624
				c3.164,10.404,2.092,21.416-3.02,31.016c-5.12,9.596-13.668,16.624-24.068,19.796c-5.096,1.552-42.924,1.016-79.5,0.496
				l-7.56-0.112h-0.048c-1.964,0-3.572,1.584-3.604,3.552c-0.024,1.988,1.564,3.62,3.552,3.648l7.556,0.104
				c21.544,0.308,38.968,0.536,52.172,0.536c16.368,0,26.268-0.352,29.524-1.344c12.248-3.724,22.304-12,28.328-23.292
				c6.02-11.296,7.288-24.26,3.556-36.5c-4.72-15.504-16.616-27.28-32.08-31.9c-0.216-1.06-0.472-2.04-0.76-2.992
				c-6.26-20.572-28.092-32.196-48.668-25.952c-2.568,0.784-5.036,1.828-7.388,3.112c-3.872-6.988-8.82-13.104-14.572-18.212
				c4.824-0.772,10.044-0.5,15.208,0.932c2.896,0.792,5.64,2,8.148,3.572c0.848,0.536,1.864,0.704,2.84,0.432
				c0.964-0.256,1.78-0.9,2.248-1.784c9.404-17.644,29.464-29.048,51.092-29.048c31.092,0,56.528,22.796,56.7,50.816
				c0.008,1.252,0.668,2.404,1.74,3.056c13.684,8.268,19.68,23.344,14.924,37.516c-2.976,8.864-9.712,16.06-19.036,20.288
				c-0.092,0.044-9.216,4.348-19.86,3.468c-1.976-0.196-3.72,1.296-3.888,3.284c-0.168,1.98,1.296,3.72,3.284,3.888
				c1.2,0.104,2.388,0.152,3.548,0.152c10.936,0,19.624-4.104,19.964-4.268c11.096-5.036,19.2-13.74,22.816-24.524
				C322.052,97.21,315.348,79.03,300.152,68.878z"/>
			<path d="M275.356,65.202c3.816-12.232-3.464-25.596-15.688-29.232c-3.14-0.932-4.48,3.968-1.348,4.9
				c9.648,2.868,15.12,13.432,12.14,22.984C269.48,66.978,274.38,68.314,275.356,65.202z"/>
			<path d="M218.816,162.95c3.268,0,3.272-5.08,0-5.08h-17.464c-3.272,0-3.276,5.08,0,5.08H218.816z"/>
			<path d="M148.964,162.95h41.912c3.268,0,3.272-5.08,0-5.08h-41.912C145.696,157.87,145.692,162.95,148.964,162.95z"/>
			<path d="M28.776,262.406L9.612,277.634L49.1,226.322c0.384-0.496,0.752-1.004,1.236-1.68l0.788-1.084
				c0.796-1.096,0.908-2.544,0.296-3.752c-0.616-1.204-1.848-1.964-3.204-1.968l-3.508-0.012c-2.34-0.008-4.54-0.016-6.736,0
				l-4.54,0.072c-2.988,0.056-5.98,0.104-8.952,0.044c0.772-1.528,0.352-3.436-1.068-4.496c-1.592-1.2-3.856-0.868-5.032,0.728
				c-1.136,1.512-2.376,4.692-1.148,7.248c1.124,2.324,4.128,3.644,6.38,3.696c3.308,0.088,6.628,0.028,9.948-0.024l4.468-0.064
				c0.992-0.008,1.972-0.032,2.988-0.008L1.848,275.87c-0.592,0.632-1.572,1.676-1.732,3.3c-0.148,1.464-0.432,4.188,1.24,6.128
				c1.404,1.616,3.604,2.06,5.268,2.06c0.496,0,0.944-0.04,1.304-0.1c1.736-0.28,2.944-1.328,3.82-2.1l21.508-17.112
				c1.552-1.232,1.812-3.5,0.576-5.06C32.596,261.426,30.336,261.178,28.776,262.406z"/>
			<path d="M112.76,222.63c-24.356,26.172-48.712,52.348-73.068,78.52c-2.224,2.392,1.36,5.992,3.592,3.592
				c24.356-26.176,48.712-52.348,73.068-78.52C118.576,223.834,114.992,220.23,112.76,222.63z"/>
			<path d="M122.616,219.494l25.052-26.92c2.224-2.392-1.36-5.992-3.592-3.592l-25.052,26.92
				C116.796,218.29,120.38,221.89,122.616,219.494z"/>
			<path d="M154.828,211.202c-10.7,11.588-21.4,23.172-32.1,34.756c-2.216,2.4,1.368,6,3.592,3.592
				c10.7-11.588,21.404-23.172,32.104-34.756C160.632,212.394,157.052,208.79,154.828,211.202z"/>
			<path d="M165.176,207.474c3.944-4.268,7.884-8.536,11.824-12.804c2.216-2.4-1.368-6-3.592-3.592
				c-3.944,4.268-7.884,8.536-11.828,12.804C159.372,206.282,162.952,209.882,165.176,207.474z"/>
			<path d="M116.856,252.83c-7.54,8.816-15.3,17.428-23.288,25.84c-2.252,2.368,1.336,5.968,3.592,3.592
				c7.988-8.408,15.752-17.024,23.288-25.836C122.564,253.95,118.984,250.338,116.856,252.83z"/>
			<path d="M192.144,207.498c-5.176,5.496-10.352,10.988-15.528,16.484c-2.24,2.38,1.344,5.976,3.592,3.592
				c5.176-5.496,10.352-10.984,15.528-16.48C197.98,208.714,194.396,205.114,192.144,207.498z"/>
			<path d="M211.124,187.354c-4.6,4.884-9.204,9.768-13.804,14.652c-2.24,2.38,1.344,5.976,3.592,3.592
				c4.6-4.884,9.2-9.768,13.804-14.652C216.96,188.57,213.372,184.97,211.124,187.354z"/>
			<path d="M169.876,233.47c-5.792,6.064-11.588,12.124-17.38,18.188c-2.26,2.364,1.328,5.964,3.592,3.592
				c5.796-6.064,11.588-12.124,17.38-18.188C175.728,234.702,172.14,231.102,169.876,233.47z"/>
		</g>
	</g>
</g>
<g>
</g>
<g>
</g>
<g>
</g>
<g>
</g>
<g>
</g>
<g>
</g>
<g>
</g>
<g>
</g>
<g>
</g>
<g>
</g>
<g>
</g>
<g>
</g>
<g>
</g>
<g>
</g>
<g>
</g>
</svg>
