<?xml version="1.0" encoding="iso-8859-1"?>
<!-- Generator: Adobe Illustrator 19.0.0, SVG Export Plug-In . SVG Version: 6.00 Build 0)  -->
<svg version="1.1" id="Layer_1" xmlns="http://www.w3.org/2000/svg" xmlns:xlink="http://www.w3.org/1999/xlink" x="0px" y="0px"
	 viewBox="0 0 315.446 315.446" style="enable-background:new 0 0 315.446 315.446;fill:#FFFFFF" xml:space="preserve">
<g>
	<g>
		<g>
			<path d="M56.041,191.731c-12.732,1.232-23.828-4.448-24.008-4.544c-11.28-5.572-19.532-15.224-23.236-27.18
				c-5.864-18.94,1.532-39.9,17.984-50.968c0.94-0.636,1.504-1.692,1.512-2.824c0.036-37.452,30.524-68.056,67.96-68.228
				c26.152-0.172,50.004,14.568,61.64,38.356c0.44,0.892,1.248,1.556,2.212,1.804c0.96,0.236,1.992,0.064,2.808-0.508
				c3.036-2.124,6.352-3.748,9.852-4.832c18.724-5.788,38.624,4.724,44.412,23.408c0.436,1.412,0.78,2.948,1.096,4.844
				c0.22,1.348,1.232,2.44,2.56,2.76c4.308,1.048,8.444,2.716,12.276,4.96c1.64,0.964,3.712,0.4,4.664-1.216
				c0.952-1.624,0.404-3.716-1.216-4.664c-3.768-2.208-7.776-3.924-11.96-5.128c-0.264-1.284-0.56-2.444-0.904-3.56
				c-6.896-22.28-30.616-34.828-52.944-27.908c-2.948,0.912-5.788,2.148-8.48,3.688c-13.26-24.068-38.072-38.816-65.668-38.816
				h-0.372c-40.58,0.188-73.732,32.884-74.732,73.252C3.613,117.403-4.275,140.815,2.293,162.039
				c4.26,13.756,13.748,24.864,26.652,31.24c0.476,0.244,10.592,5.464,23.364,5.456c1.436,0,2.908-0.064,4.4-0.208
				c1.876-0.184,3.244-1.852,3.06-3.724C59.581,192.911,57.877,191.499,56.041,191.731z"/>
			<path d="M74.753,57.527c-18.128,8.692-32.608,23.488-34.02,44.36c-0.208,3.092,4.604,3.08,4.812,0
				c1.3-19.192,15.168-32.312,31.636-40.204C79.969,60.343,77.533,56.195,74.753,57.527z"/>
			<path d="M106.389,54.279c-6.304-3.424-13.704-3.3-19.828,0.476c-2.628,1.62-0.216,5.784,2.428,4.152
				c4.66-2.872,10.148-3.1,14.976-0.472C106.685,59.911,109.113,55.759,106.389,54.279z"/>
			<path d="M185.769,199.931v0.004c1.88,0,3.404-1.528,3.412-3.404c0-1.884-1.524-3.412-3.404-3.416l-82.376-0.088h-0.004
				c-1.88,0-3.404,1.528-3.412,3.404c0,1.884,1.524,3.412,3.404,3.416l82.372,0.084H185.769z"/>
			<path d="M92.573,193.115H73.169c-1.884,0-3.412,1.528-3.412,3.412s1.528,3.412,3.412,3.412h19.404
				c1.884,0,3.412-1.528,3.412-3.412S94.457,193.115,92.573,193.115z"/>
			<path d="M222.505,124.435c-7.48,4.592-11.288,13.668-8.86,21.1c0.584,1.792,2.524,2.76,4.304,2.18
				c1.784-0.584,2.76-2.512,2.18-4.304c-1.624-4.956,1.752-10.588,5.944-13.168c4.312-2.648,10.128-3.516,17.264-2.564
				c7.344,0.976,13.504,3.5,17.816,7.3c7.776,6.844,10.672,19.44,7.044,30.62c-2.928,9.024-9.092,20.748-21.788,25.344
				c-5.492,1.984-14.792,2.084-14.888,2.084h-7.144c-0.116,0-0.236,0.008-0.352,0.02l-27.836,0.064
				c-1.884,0.004-3.404,1.536-3.4,3.42c0.004,1.88,1.528,3.4,3.412,3.4h0.008l32.4-0.08c0.236,0.052,0.48,0.08,0.728,0.08
				c0.048,0,0.088,0,0.136-0.004l2.084-0.08h0.02c0.428-0.004,10.556-0.112,17.152-2.5c15.284-5.528,22.548-19.172,25.948-29.648
				c4.516-13.908,0.888-29.112-9.02-37.84c-5.324-4.7-12.74-7.788-21.424-8.94C235.501,119.751,228.189,120.939,222.505,124.435z"/>
			<path d="M260.697,198.267c-1.864,0.236-3.188,1.94-2.956,3.812c0.236,1.864,1.904,3.188,3.808,2.956
				c17.972-2.26,32.364,2.988,40.552,14.776c7.796,11.224,8.692,27.064,2.232,39.412c-6.144,11.756-17.5,18.224-31.98,18.224
				c-1.884,0-3.412,1.528-3.412,3.412s1.528,3.412,3.412,3.412c16.888,0,30.748-7.976,38.02-21.884
				c7.608-14.536,6.532-33.212-2.672-46.464C302.085,207.827,288.569,194.779,260.697,198.267z"/>
			<path d="M268.237,187.159c-1.832-0.476-3.688,0.604-4.168,2.428c-0.48,1.816,0.604,3.684,2.428,4.168
				c6.432,1.696,12.012,2.392,16.84,2.392c13.888,0,21.552-5.752,25.288-9.928c6.828-7.648,8.716-19.06,4.816-29.076
				c-3.84-9.88-12.48-16.412-23.104-17.472c-1.836-0.228-3.548,1.184-3.732,3.056c-0.188,1.872,1.18,3.544,3.056,3.732
				c8.14,0.812,14.492,5.608,17.432,13.156c2.972,7.648,1.58,16.308-3.552,22.056C296.645,189.399,284.097,191.343,268.237,187.159z
				"/>
			<path d="M274.697,227.279c-1.188-5.716-3.648-10.42-7.108-13.604c-8.152-7.464-19.868-6.292-31.316-3.904
				c-1.84,0.38-3.024,2.192-2.64,4.032c0.38,1.84,2.18,3.044,4.032,2.64c9.676-2.012,19.44-3.14,25.312,2.256
				c3.036,2.792,4.42,6.968,5.044,9.968c1.832,8.848-0.344,18.416-5.812,25.6c-5.472,7.188-14.12,11.824-23.136,12.404
				c-6.1,0.392-11.74-1.236-15.412-4.452c-3.944-3.464-5.552-9.208-3.74-13.368c1.424-3.26,4.9-5.568,8.452-5.62
				c3.34-0.084,7.092,2.172,8.596,5.396c0.796,1.712,2.828,2.428,4.532,1.648c1.704-0.8,2.444-2.828,1.648-4.532
				c-2.64-5.656-8.372-9.384-14.868-9.332c-6.244,0.084-12.116,3.988-14.608,9.716c-2.992,6.876-0.68,15.788,5.488,21.212
				c4.604,4.04,10.948,6.212,18.06,6.212c0.756,0,1.524-0.024,2.296-0.076c10.956-0.704,21.468-6.34,28.116-15.076
				C274.285,249.667,276.925,238.039,274.697,227.279z"/>
			<path d="M144.645,211.239l-36.232,0.56c-1.884,0.036-3.388,1.58-3.36,3.46c0.036,1.868,1.552,3.36,3.412,3.36h0.052l36.232-0.56
				c1.884-0.036,3.388-1.58,3.36-3.46C148.073,212.711,146.517,211.279,144.645,211.239z"/>
			<path d="M226.385,213.395c-0.032-1.888-1.416-3.524-3.46-3.36l-68.892,1.056c-1.884,0.036-3.388,1.58-3.36,3.464
				c0.036,1.864,1.552,3.356,3.412,3.356h0.052l68.892-1.056C224.909,216.823,226.413,215.275,226.385,213.395z"/>
			<path d="M189.733,172.091h-53.3c-1.884,0-3.412,1.528-3.412,3.412s1.528,3.412,3.412,3.412h53.3c1.884,0,3.412-1.528,3.412-3.412
				S191.617,172.091,189.733,172.091z"/>
			<path d="M220.189,178.911c1.884,0,3.412-1.528,3.412-3.412s-1.528-3.412-3.412-3.412h-19.036c-1.884,0-3.412,1.528-3.412,3.412
				s1.524,3.412,3.412,3.412H220.189z"/>
		</g>
	</g>
</g>
<g>
</g>
<g>
</g>
<g>
</g>
<g>
</g>
<g>
</g>
<g>
</g>
<g>
</g>
<g>
</g>
<g>
</g>
<g>
</g>
<g>
</g>
<g>
</g>
<g>
</g>
<g>
</g>
<g>
</g>
</svg>
